<?xml version="1.0" encoding="UTF-8" standalone="no"?>
<!-- Created with Inkscape (http://www.inkscape.org/) -->

<svg
   xmlns:dc="http://purl.org/dc/elements/1.1/"
   xmlns:cc="http://creativecommons.org/ns#"
   xmlns:rdf="http://www.w3.org/1999/02/22-rdf-syntax-ns#"
   xmlns:svg="http://www.w3.org/2000/svg"
   xmlns="http://www.w3.org/2000/svg"
   xmlns:xlink="http://www.w3.org/1999/xlink"
   xmlns:sodipodi="http://sodipodi.sourceforge.net/DTD/sodipodi-0.dtd"
   xmlns:inkscape="http://www.inkscape.org/namespaces/inkscape"
   width="744.09448819"
   height="1052.3622047"
   id="svg2"
   version="1.1"
   inkscape:version="0.48.5 r10040"
   sodipodi:docname="Rys.pdf">
  <defs
     id="defs4">
    <inkscape:path-effect
       effect="skeletal"
       id="path-effect3122"
       is_visible="true"
       pattern="M 0,5 10,10 10,0 z"
       copytype="single_stretched"
       prop_scale="1"
       scale_y_rel="false"
       spacing="0"
       normal_offset="0"
       tang_offset="0"
       prop_units="false"
       vertical_pattern="false"
       fuse_tolerance="0" />
  </defs>
  <sodipodi:namedview
     id="base"
     pagecolor="#ffffff"
     bordercolor="#666666"
     borderopacity="1.0"
     inkscape:pageopacity="0.0"
     inkscape:pageshadow="2"
     inkscape:zoom="0.49497475"
     inkscape:cx="426.71452"
     inkscape:cy="352.37286"
     inkscape:document-units="px"
     inkscape:current-layer="layer1"
     showgrid="false"
     inkscape:window-width="1920"
     inkscape:window-height="1018"
     inkscape:window-x="-8"
     inkscape:window-y="-8"
     inkscape:window-maximized="1" />
  <metadata
     id="metadata7">
    <rdf:RDF>
      <cc:Work
         rdf:about="">
        <dc:format>image/svg+xml</dc:format>
        <dc:type
           rdf:resource="http://purl.org/dc/dcmitype/StillImage" />
        <dc:title></dc:title>
      </cc:Work>
    </rdf:RDF>
  </metadata>
  <g
     inkscape:label="Layer 1"
     inkscape:groupmode="layer"
     id="layer1">
    <path
       sodipodi:type="star"
       style="fill:#00ac00"
       id="path3005"
       sodipodi:sides="10"
       sodipodi:cx="183.84776"
       sodipodi:cy="264.44321"
       sodipodi:r1="118.41542"
       sodipodi:r2="137.69235"
       sodipodi:arg1="2.7501875"
       sodipodi:arg2="3.0643468"
       inkscape:flatsided="false"
       inkscape:rounded="0.3"
       inkscape:randomized="0"
       d="M 74.387636,309.61723 C 69.311021,297.3162 47.592928,288.33653 46.566006,275.0688 45.539085,261.80106 65.61674,249.58641 68.740035,236.65071 c 3.123296,-12.9357 -9.168893,-32.96598 -2.201111,-44.30341 6.967782,-11.33743 30.390537,-9.41794 40.520746,-18.04732 10.13022,-8.62937 11.95913,-32.05938 24.26016,-37.136 12.30103,-5.07661 30.12219,10.24384 43.38992,9.21692 13.26774,-1.02692 28.51917,-18.90719 41.45487,-15.78389 12.9357,3.12329 18.34819,25.99281 29.68562,32.9606 11.33743,6.96778 34.18586,1.46691 42.81523,11.59712 8.62938,10.13022 -0.43419,31.81342 4.64242,44.11445 5.07662,12.30103 26.79471,21.2807 27.82163,34.54844 1.02692,13.26773 -19.05073,25.48238 -22.17403,38.41808 -3.12329,12.9357 9.16889,32.96598 2.20111,44.30342 -6.96778,11.33743 -30.39054,9.41794 -40.52075,18.04731 -10.13021,8.62938 -11.95913,32.05938 -24.26016,37.136 -12.30102,5.07661 -30.12218,-10.24384 -43.38992,-9.21692 -13.26773,1.02693 -28.51916,18.90719 -41.45487,15.78389 -12.9357,-3.12329 -18.34818,-25.99281 -29.68561,-32.96059 -11.33744,-6.96778 -34.185861,-1.46691 -42.815237,-11.59713 -8.629374,-10.13021 0.434198,-31.81342 -4.642417,-44.11445 z"
       inkscape:transform-center-x="0.70568962"
       inkscape:transform-center-y="-3.1410124"
       transform="matrix(2.4157756,0,0,2.67727,-70.378493,-213.22788)" />
    <flowRoot
       xml:space="preserve"
       id="flowRoot3035"
       style="fill:black;stroke:none;stroke-opacity:1;stroke-width:1px;stroke-linejoin:miter;stroke-linecap:butt;fill-opacity:1;font-family:Arial Rounded MT Bold;font-style:normal;font-weight:normal;font-size:40px;line-height:125%;letter-spacing:0px;word-spacing:0px;-inkscape-font-specification:Arial Rounded MT Bold"><flowRegion
         id="flowRegion3037"><rect
           id="rect3039"
           width="161.6244"
           height="274.76151"
           x="266.68027"
           y="401.82394" /></flowRegion><flowPara
         id="flowPara3041"></flowPara></flowRoot>    <flowRoot
       xml:space="preserve"
       id="flowRoot3043"
       style="fill:black;stroke:none;stroke-opacity:1;stroke-width:1px;stroke-linejoin:miter;stroke-linecap:butt;fill-opacity:1;font-family:Arial Rounded MT Bold;font-style:normal;font-weight:normal;font-size:40px;line-height:125%;letter-spacing:0px;word-spacing:0px;-inkscape-font-specification:Arial Rounded MT Bold"><flowRegion
         id="flowRegion3045"><rect
           id="rect3047"
           width="305.06607"
           height="369.71582"
           x="107.07617"
           y="381.62088" /></flowRegion><flowPara
         id="flowPara3049"></flowPara></flowRoot>    <flowRoot
       xml:space="preserve"
       id="flowRoot3051"
       style="fill:black;stroke:none;stroke-opacity:1;stroke-width:1px;stroke-linejoin:miter;stroke-linecap:butt;fill-opacity:1;font-family:Arial Rounded MT Bold;font-style:normal;font-weight:normal;font-size:40px;line-height:125%;letter-spacing:0px;word-spacing:0px;-inkscape-font-specification:Arial Rounded MT Bold"><flowRegion
         id="flowRegion3053"><rect
           id="rect3055"
           width="830.3454"
           height="404.061"
           x="-96.974648"
           y="270.50412" /></flowRegion><flowPara
         id="flowPara3057"></flowPara></flowRoot>    <flowRoot
       xml:space="preserve"
       id="flowRoot3059"
       style="fill:black;stroke:none;stroke-opacity:1;stroke-width:1px;stroke-linejoin:miter;stroke-linecap:butt;fill-opacity:1;font-family:Arial Rounded MT Bold;font-style:normal;font-weight:normal;font-size:40px;line-height:125%;letter-spacing:0px;word-spacing:0px;-inkscape-font-specification:Arial Rounded MT Bold"><flowRegion
         id="flowRegion3061"><rect
           id="rect3063"
           width="317.1879"
           height="436.38589"
           x="151.52289"
           y="312.93051" /></flowRegion><flowPara
         id="flowPara3065"></flowPara></flowRoot>    <flowRoot
       xml:space="preserve"
       id="flowRoot3067"
       style="font-size:110px;font-style:normal;font-variant:normal;font-weight:bold;font-stretch:normal;text-align:start;line-height:125%;letter-spacing:0px;word-spacing:0px;writing-mode:lr-tb;text-anchor:start;fill:#000400;fill-opacity:1;stroke:none;font-family:Arial Rounded MT Bold;-inkscape-font-specification:'Arial Rounded MT Bold, Bold'"><flowRegion
         id="flowRegion3069"><rect
           id="rect3071"
           width="551.54327"
           height="341.43158"
           x="115.15739"
           y="403.84424"
           style="font-size:110px;font-style:normal;font-variant:normal;font-weight:bold;font-stretch:normal;text-align:start;line-height:125%;writing-mode:lr-tb;text-anchor:start;fill:#000400;font-family:Arial Rounded MT Bold;-inkscape-font-specification:'Arial Rounded MT Bold, Bold'" /></flowRegion><flowPara
         id="flowPara3092">KICK</flowPara></flowRoot>    <flowRoot
       xml:space="preserve"
       id="flowRoot3096"
       style="font-size:110px;font-style:normal;font-weight:normal;line-height:125%;letter-spacing:0px;word-spacing:0px;fill:#ffffff;fill-opacity:1;stroke:none;font-family:Arial Rounded MT Bold;-inkscape-font-specification:Arial Rounded MT Bold"><flowRegion
         id="flowRegion3098"><rect
           id="rect3100"
           width="478.81232"
           height="147.48227"
           x="133.34013"
           y="527.08289"
           style="fill:#ffffff;font-size:110px" /></flowRegion><flowPara
         id="flowPara3102" /></flowRoot>    <flowRoot
       xml:space="preserve"
       id="flowRoot3104"
       style="font-size:110px;font-style:normal;font-weight:bold;line-height:125%;letter-spacing:0px;word-spacing:0px;fill:#ffffff;fill-opacity:1;stroke:none;font-family:Arial Rounded MT Bold;-inkscape-font-specification:'Arial Rounded MT Bold, Bold'"><flowRegion
         id="flowRegion3106"><rect
           id="rect3108"
           width="525.27936"
           height="145.46196"
           x="119.198"
           y="531.12347"
           style="font-size:110px;fill:#ffffff;font-weight:bold;-inkscape-font-specification:'Arial Rounded MT Bold, Bold'" /></flowRegion><flowPara
         id="flowPara3110">STARTER</flowPara></flowRoot>    <path
       style="fill:#ffffff;fill-rule:evenodd;stroke:none"
       d="m 210.06447,399.80364 c -1.74148,-6.84628 -2.86278,-13.86427 -2.93898,-20.89746 -0.0644,-5.94272 0.63803,-11.8962 2.31633,-17.55684 1.53908,-5.19607 3.90728,-10.13217 6.96608,-14.57644 10e-6,0 10e-6,0 10e-6,-10e-6 3.0924,-4.4959 6.87851,-8.49437 11.06125,-12.00229 1e-5,-10e-6 1e-5,-10e-6 2e-5,-10e-6 9.4471,-7.93091 20.74931,-13.39431 32.37092,-17.73432 13.74264,-5.11946 28.05668,-8.61469 42.49447,-11.52264 15.94793,-3.20831 32.06262,-5.62459 48.2274,-7.8874 16.48735,-2.30679 33.03212,-4.42 49.57292,-6.88503 15.55761,-2.31634 31.15309,-4.9206 46.60997,-8.57272 13.3586,-3.14308 26.77023,-7.08558 39.5101,-13.13009 l -4.42652,-8.96694 c -11.59065,5.96624 -24.28084,10.07421 -37.23419,13.55782 -14.96225,4.00897 -30.26352,7.02331 -45.66126,9.78452 -16.35951,2.93155 -32.8236,5.52712 -49.28319,8.32462 -16.13071,2.74057 -32.27866,5.65121 -48.27157,9.35776 -14.47021,3.35034 -28.88432,7.33285 -42.70533,12.94112 -11.69139,4.73338 -23.10322,10.70908 -32.58767,19.13112 -1e-5,0 -1e-5,1e-5 -2e-5,1e-5 -4.20318,3.7358 -7.97975,7.9758 -11.03318,12.70075 -1e-5,10e-6 -1e-5,10e-6 -1e-5,2e-5 -3.01962,4.67544 -5.29708,9.81338 -6.7148,15.17067 -1.54252,5.83509 -2.07531,11.89053 -1.83325,17.88228 0.28644,7.08923 1.61894,14.08925 3.5605,20.8815 z"
       id="path3120"
       inkscape:path-effect="#path-effect3122"
       inkscape:original-d="M 210.06447,399.80364 C 177.54019,279.36404 396.04149,307.99618 484.0417,264.55492"
       inkscape:connector-curvature="0" />
    <text
       xml:space="preserve"
       style="font-size:36px;font-style:normal;font-weight:normal;line-height:125%;letter-spacing:0px;word-spacing:0px;fill:#ffffff;fill-opacity:1;stroke:none;font-family:Arial Rounded MT Bold;-inkscape-font-specification:Arial Rounded MT Bold"
       id="text3140"
       sodipodi:linespacing="125%"><textPath
         xlink:href="#path3120"
         id="textPath3146"><tspan
   id="tspan3142"><tspan
     id="tspan3144"
     y="228.35503"
     x="159.59375"
     dx="28.284271">FUNDED WITH</tspan></tspan></textPath></text>
  </g>
</svg>
